<svg width="274" height="274" viewBox="0 0 274 274" fill="none" xmlns="http://www.w3.org/2000/svg">
<ellipse cx="137" cy="136.5" rx="25" ry="24.5" fill="#FFAF52"/>
<path d="M187.5 137C187.5 164.895 165.11 187.5 137.5 187.5C109.89 187.5 87.5 164.895 87.5 137C87.5 109.105 109.89 86.5 137.5 86.5C165.11 86.5 187.5 109.105 187.5 137Z" stroke="white"/>
<path d="M202.5 137C202.5 172.619 173.402 201.5 137.5 201.5C101.598 201.5 72.5 172.619 72.5 137C72.5 101.381 101.598 72.5 137.5 72.5C173.402 72.5 202.5 101.381 202.5 137Z" stroke="white"/>
<path d="M213.5 136.5C213.5 179.029 179.247 213.5 137 213.5C94.7533 213.5 60.5 179.029 60.5 136.5C60.5 93.971 94.7533 59.5 137 59.5C179.247 59.5 213.5 93.971 213.5 136.5Z" stroke="white"/>
<path d="M222.5 136.5C222.5 183.999 184.218 222.5 137 222.5C89.7824 222.5 51.5 183.999 51.5 136.5C51.5 89.0008 89.7824 50.5 137 50.5C184.218 50.5 222.5 89.0008 222.5 136.5Z" stroke="white"/>
<path d="M232.5 136.5C232.5 189.524 189.962 232.5 137.5 232.5C85.0378 232.5 42.5 189.524 42.5 136.5C42.5 83.4757 85.0378 40.5 137.5 40.5C189.962 40.5 232.5 83.4757 232.5 136.5Z" stroke="white"/>
<circle cx="137.5" cy="136.5" r="104" stroke="white"/>
<path d="M249.5 137C249.5 199.134 199.354 249.5 137.5 249.5C75.6462 249.5 25.5 199.134 25.5 137C25.5 74.8659 75.6462 24.5 137.5 24.5C199.354 24.5 249.5 74.8659 249.5 137Z" stroke="white"/>
<path d="M257.5 137C257.5 203.552 203.772 257.5 137.5 257.5C71.2278 257.5 17.5 203.552 17.5 137C17.5 70.4477 71.2278 16.5 137.5 16.5C203.772 16.5 257.5 70.4477 257.5 137Z" stroke="white"/>
<circle cx="137" cy="137" r="136.5" stroke="white"/>
<circle cx="183.5" cy="116.5" r="4.5" fill="#D9D9D9"/>
<circle cx="137.5" cy="257.5" r="4.5" fill="#D9D9D9"/>
<circle cx="237.5" cy="86.5" r="4.5" fill="#D9D9D9"/>
<circle cx="218.5" cy="245.5" r="4.5" fill="#D9D9D9"/>
<circle cx="64.5" cy="90.5" r="4.5" fill="#D9D9D9"/>
<circle cx="46.5" cy="187.5" r="4.5" fill="#D9D9D9"/>
<circle cx="195.5" cy="165.5" r="4.5" fill="#D9D9D9"/>
<circle cx="137.5" cy="40.5" r="4.5" fill="#D9D9D9"/>
<circle cx="190.5" cy="81.5" r="4.5" fill="#D9D9D9"/>
</svg>
